<!DOCTYPE svg PUBLIC "-//W3C//DTD SVG 1.1//EN" "http://www.w3.org/Graphics/SVG/1.1/DTD/svg11.dtd">
<!-- Uploaded to: SVG Repo, www.svgrepo.com, Transformed by: SVG Repo Mixer Tools -->
<svg version="1.1" id="Layer_1" xmlns="http://www.w3.org/2000/svg" xmlns:xlink="http://www.w3.org/1999/xlink" viewBox="0 0 512 512" xml:space="preserve" width="800px" height="800px" fill="#000000">
<g id="SVGRepo_bgCarrier" stroke-width="0"/>
<g id="SVGRepo_tracerCarrier" stroke-linecap="round" stroke-linejoin="round"/>
<g id="SVGRepo_iconCarrier"> <circle style="fill:#EFEFEF;" cx="256" cy="256" r="256"/> <rect x="64" y="155.04" style="fill:#FFFFFF;" width="384" height="232"/> <path style="fill:#999999;" d="M448,155.12v-24.56c0-12.96-10.56-23.52-23.52-23.52H87.52C74.56,107.04,64,117.6,64,130.56v24.56 H448z"/> <g> <circle style="fill:#FFFFFF;" cx="97.12" cy="131.12" r="6.72"/> <circle style="fill:#FFFFFF;" cx="117.2" cy="131.12" r="6.72"/> <circle style="fill:#FFFFFF;" cx="137.28" cy="131.12" r="6.72"/> <path style="fill:#FFFFFF;" d="M388.24,142.8H204.08c-6.48,0-11.76-5.28-11.76-11.76l0,0c0-6.48,5.28-11.76,11.76-11.76h184.16 c6.48,0,11.76,5.28,11.76,11.76l0,0C400,137.52,394.72,142.8,388.24,142.8z"/> </g> <path style="fill:#00C454;" d="M335.84,279.28H153.36c-5.36,0-9.76-4.4-9.76-9.76v-52.16c0-5.36,4.4-9.76,9.76-9.76h182.48 c5.36,0,9.76,4.4,9.76,9.76v52.16C345.6,274.88,341.2,279.28,335.84,279.28z"/> <g> <rect x="339.458" y="293.012" transform="matrix(-0.7071 0.7071 -0.7071 -0.7071 815.6173 288.5033)" style="fill:#3B3B3B;" width="17.2" height="40.32"/> <polygon style="fill:#3B3B3B;" points="314.96,317.76 307.12,272.8 352.08,280.56 "/> </g> <g> <path style="fill:#FFFFFF;" d="M175.44,226.8l4.4,16.88c0.96,3.68,1.84,7.12,2.48,10.56h0.24c0.72-3.36,1.84-6.96,2.96-10.48 l5.44-16.88H196l5.12,16.56c1.2,4,2.16,7.44,2.96,10.8h0.24c0.56-3.36,1.44-6.88,2.56-10.72l4.72-16.64h6L206.88,260h-5.44 l-5.04-15.84c-1.2-3.68-2.16-6.96-2.96-10.88h-0.16c-0.8,4-1.84,7.36-3.04,10.96L184.88,260h-5.44l-10-33.12h6V226.8z"/> <path style="fill:#FFFFFF;" d="M226.72,226.8l4.4,16.88c0.96,3.68,1.84,7.12,2.48,10.56h0.24c0.72-3.36,1.84-6.96,2.96-10.48 l5.44-16.88h5.04l5.12,16.56c1.2,4,2.16,7.44,2.96,10.8h0.24c0.56-3.36,1.44-6.88,2.56-10.72l4.72-16.64h6L258.16,260h-5.44 l-5.04-15.84c-1.2-3.68-2.16-6.96-2.96-10.88h-0.16c-0.8,4-1.84,7.36-3.04,10.96L236.16,260h-5.44l-10-33.12h6V226.8z"/> <path style="fill:#FFFFFF;" d="M277.92,226.8l4.4,16.88c0.96,3.68,1.84,7.12,2.48,10.56h0.24c0.72-3.36,1.84-6.96,2.96-10.48 l5.44-16.88h5.04l5.12,16.56c1.2,4,2.16,7.44,2.96,10.8h0.24c0.56-3.36,1.44-6.88,2.56-10.72l4.72-16.64h6L309.36,260h-5.44 l-5.04-15.84c-1.2-3.68-2.16-6.96-2.96-10.88h-0.16c-0.8,4-1.84,7.36-3.04,10.96L287.36,260h-5.44l-10-33.12h6V226.8z"/> </g> </g>
</svg>